<?xml version="1.0" encoding="UTF-8"?>
<svg width="1312px" height="686px" viewBox="0 0 1312 686" version="1.1" xmlns="http://www.w3.org/2000/svg" xmlns:xlink="http://www.w3.org/1999/xlink">
    <!-- Generator: Sketch 61 (89581) - https://sketch.com -->
    <title>Artboard Copy 4</title>
    <desc>Created with Sketch.</desc>
    <defs>
        <linearGradient x1="0%" y1="27.4486681%" x2="82.2511148%" y2="100%" id="linearGradient-1">
            <stop stop-color="#F9637C" offset="0%"></stop>
            <stop stop-color="#FF7933" offset="100%"></stop>
        </linearGradient>
        <linearGradient x1="26.3213735%" y1="17.1911169%" x2="144.700039%" y2="118.424479%" id="linearGradient-2">
            <stop stop-color="#CFF5DB" offset="0%"></stop>
            <stop stop-color="#C0E7CD" offset="100%"></stop>
        </linearGradient>
    </defs>
    <g id="Artboard-Copy-4" stroke="none" stroke-width="1" fill="none" fill-rule="evenodd">
        <rect id="Rectangle" fill="url(#linearGradient-1)" opacity="0.549479167" x="541" y="218" width="8" height="8" rx="3"></rect>
        <rect id="Rectangle-Copy" fill="url(#linearGradient-1)" opacity="0.400576637" x="823" y="320" width="5" height="5" rx="2.5"></rect>
        <rect id="Rectangle-Copy-11" fill="url(#linearGradient-1)" x="1010" y="109" width="5" height="5" rx="2.5"></rect>
        <rect id="Rectangle-Copy-15" fill="url(#linearGradient-1)" x="60" y="633" width="5" height="5" rx="2.5"></rect>
        <rect id="Rectangle-Copy-8" fill="url(#linearGradient-1)" x="55" y="284" width="5" height="5" rx="2.5"></rect>
        <rect id="Rectangle-Copy-9" fill="url(#linearGradient-1)" x="432" y="146" width="5" height="5" rx="2.5"></rect>
        <rect id="Rectangle-Copy-6" fill="url(#linearGradient-1)" x="221" y="533" width="5" height="5" rx="2.5"></rect>
        <rect id="Rectangle-Copy-2" fill="url(#linearGradient-1)" opacity="0.400576637" x="739" y="280" width="5" height="5" rx="2.5"></rect>
        <rect id="Rectangle-Copy-5" fill="url(#linearGradient-1)" x="216" y="151" width="5" height="5" rx="2.5"></rect>
        <rect id="Rectangle-Copy-3" fill="url(#linearGradient-2)" x="833" y="239" width="8" height="8" rx="3"></rect>
        <rect id="Rectangle-Copy-16" fill="url(#linearGradient-2)" x="401" y="587" width="8" height="8" rx="3"></rect>
        <rect id="Rectangle-Copy-4" fill="url(#linearGradient-2)" x="380" y="351" width="8" height="8" rx="3"></rect>
        <rect id="Rectangle-Copy-10" fill="url(#linearGradient-2)" x="1127" y="210" width="8" height="8" rx="3"></rect>
        <rect id="Rectangle-Copy-12" fill="url(#linearGradient-2)" x="1227" y="82" width="8" height="8" rx="3"></rect>
        <rect id="Rectangle-Copy-14" fill="url(#linearGradient-2)" x="1260" y="587" width="8" height="8" rx="3"></rect>
        <rect id="Rectangle-Copy-7" fill="url(#linearGradient-2)" x="1047" y="513" width="8" height="8" rx="3"></rect>
        <circle id="Oval-Copy" stroke="#FC6E59" stroke-width="3" opacity="0.24374535" cx="443.5" cy="424.5" r="11.5"></circle>
        <path d="" id="Path-2" stroke="#979797"></path>
        <rect id="Rectangle-Copy-13" fill="url(#linearGradient-1)" x="50" y="30" width="5" height="5" rx="2.5"></rect>
        <rect id="Rectangle" fill="url(#linearGradient-1)" opacity="0.100609189" transform="translate(1217.703676, 296.904242) rotate(-26.000000) translate(-1217.703676, -296.904242) " x="1185.70368" y="264.904242" width="64" height="64" rx="8"></rect>
        <rect id="Rectangle-Copy-17" fill="url(#linearGradient-1)" opacity="0.100609189" transform="translate(55.703676, 433.904242) rotate(17.000000) translate(-55.703676, -433.904242) " x="20.7036761" y="398.904242" width="70" height="70" rx="8"></rect>
    </g>
</svg>